<?xml version="1.0" encoding="UTF-8"?>
<svg width="25px" height="24px" viewBox="0 0 25 24" version="1.1" xmlns="http://www.w3.org/2000/svg" xmlns:xlink="http://www.w3.org/1999/xlink">
    <g id="Page-1" stroke="none" stroke-width="1" fill="none" fill-rule="evenodd">
        <g id="legend" fill="#939598" fill-rule="nonzero">
			<path d="M4.02925989,13.6699314 L4.88286553,13.6699314 L5.11475475,11.6880922 C5.11475475,10.5276762 5.82147122,9.5242034 6.84799531,9.04555082 C5.82060175,8.72336349 5.11475475,8.0525588 5.11475475,7.30718445 L4.1493633,2.65507768 C4.14354392,2.59609969 4.14354392,2.53673322 4.1493633,2.47775523 C4.1493633,2.39430937 4.1493633,2.39430937 4.1493633,2.39430937 C4.1493633,2.01880299 4.44556295,1.66415808 4.96116975,1.3512361 C5.22888838,1.16925687 5.52505215,1.02845904 5.83879834,0.934006795 C7.8696886,0.267443144 10.0099543,-0.04699068 12.1577242,0.00567158812 C14.3117064,-0.0332596441 16.4555838,0.295290078 18.4876204,0.975729725 C18.7989171,1.06797168 19.0918305,1.20898698 19.3542787,1.39295903 C19.8698855,1.70588101 20.1770555,2.06052592 20.1770555,2.4360323 C20.1808461,2.46373083 20.1808461,2.49177962 20.1770555,2.51947816 C20.1830742,2.57844713 20.1830742,2.63783164 20.1770555,2.69680061 L19.211664,7.30718445 C19.211664,8.0731631 18.5090439,8.7331007 17.4854718,9.04884796 C18.5081811,9.52880089 19.211664,10.530334 19.211664,11.6880922 L19.4435533,13.6699314 L20.2861885,13.6699314 L19.9027965,11.4794775 C19.8331282,11.1068795 19.9241258,10.7233013 20.1552742,10.4152191 C20.3864226,10.1071369 20.7382639,9.90048505 21.1314766,9.84185249 L21.3618541,9.84185249 C21.7475208,9.77846395 22.143851,9.86392318 22.4630295,10.0792949 C22.782208,10.2946666 22.9978802,10.6221675 23.0622595,10.9892331 L24.2799692,18.0404084 C24.4120342,18.8063138 23.8674083,19.5294183 23.0622595,19.6571719 L22.831882,19.6571719 C22.0263531,19.7827408 21.2658394,19.2649047 21.1314766,18.4993606 L20.6641035,15.829093 L19.6961905,15.829093 L20.1770555,19.9388017 C20.1829188,20.0291154 20.1829188,20.119687 20.1770555,20.2100007 C20.1831391,20.2550155 20.1831391,20.3005855 20.1770555,20.3456003 C20.1368518,20.9515309 19.8399788,21.5160709 19.3542787,21.9102102 C19.107965,22.1701085 18.814382,22.3856483 18.4876204,22.5464849 C16.5461337,23.544862 14.3643855,24.0445945 12.1577242,23.9963567 C9.95552269,24.0479026 7.77734341,23.5517169 5.83879834,22.5569156 C5.50984572,22.3901625 5.21308033,22.1714825 4.96116975,21.9102102 C4.47587055,21.5125129 4.18259626,20.9435116 4.1493633,20.3351695 C4.1493633,20.2830159 4.1493633,20.2412929 4.1493633,20.19957 C4.14409281,20.1127195 4.14409281,20.0256522 4.1493633,19.9388017 L4.63022832,15.829093 L3.65134493,15.829093 L3.18397184,18.4993606 C3.12205513,18.8662078 2.90907101,19.19452 2.5920712,19.4117678 C2.27507138,19.6290155 1.88014463,19.7173195 1.4945368,19.6571719 L1.2641593,19.6571719 C0.866662903,19.6012309 0.510135741,19.3941178 0.276382898,19.0833546 C0.0426300552,18.7725914 -0.048281126,18.3848567 0.0245089078,18.0091162 L1.25318894,10.9892331 C1.31477974,10.6208489 1.52979853,10.2915677 1.84972778,10.0756894 C2.16965703,9.85981107 2.56753901,9.77552599 2.95359434,9.84185249 L3.18397184,9.84185249 C3.57858636,9.89775806 3.93235278,10.1037681 4.16405418,10.4125874 C4.39575558,10.7214066 4.48548837,11.1065068 4.41265187,11.4794775 L4.02925989,13.6699314 Z" id="Combined-Shape-Copy-3"></path>
        </g>
    </g>
</svg>