<?xml version="1.0" encoding="UTF-8"?>
<svg width="60px" height="60px" viewBox="0 0 60 60" version="1.1" xmlns="http://www.w3.org/2000/svg" xmlns:xlink="http://www.w3.org/1999/xlink">
    <!-- Generator: Sketch 51.2 (57519) - http://www.bohemiancoding.com/sketch -->
    <title>Artboard 2</title>
    <desc>Created with Sketch.</desc>
    <defs></defs>
    <g id="Artboard-2" stroke="none" stroke-width="1" fill="none" fill-rule="evenodd">
        <g id="pc" transform="translate(0.000000, 10.000000)" fill="#FFFFFF" fill-rule="nonzero">
            <g id="Group">
                <path d="M54.9726562,0.0817757009 L5.02734375,0.0817757009 C2.25,0.0817757009 0,2.32476636 0,5.0817757 L0,32.453271 C0,35.2102804 2.25,37.4649533 5.02734375,37.4649533 L22.0195312,37.4649533 L20.3085937,42.5700935 C18.6914062,42.9906542 17.4960937,44.4509346 17.4960937,46.1915888 L17.4960937,47.4299065 L13.7460937,47.4299065 C13.0546875,47.4299065 12.4921875,47.9906542 12.4921875,48.6799065 C12.4921875,49.3691589 13.0546875,49.9299065 13.7460937,49.9299065 L19.453125,49.9299065 L40.546875,49.9299065 L46.2539062,49.9299065 C46.9453125,49.9299065 47.5078125,49.3691589 47.5078125,48.6799065 C47.5078125,47.9906542 46.9453125,47.4299065 46.2539062,47.4299065 L42.5039062,47.4299065 L42.5039062,46.1799065 C42.5039062,44.4392523 41.3085937,42.978972 39.6914062,42.5584112 L37.9804687,37.453271 L54.9726562,37.453271 C57.7382812,37.453271 60,35.2102804 60,32.4415888 L60,5.0817757 C60,2.32476636 57.75,0.0817757009 54.9726562,0.0817757009 Z M38.7539062,44.9415888 C39.4453125,44.9415888 40.0078125,45.5023364 40.0078125,46.1915888 L40.0078125,47.4299065 L20.0039062,47.4299065 L20.0039062,46.1799065 C20.0039062,45.4906542 20.5664062,44.9299065 21.2578125,44.9299065 L38.7539062,44.9415888 Z M22.9804688,42.4415888 L24.6445312,37.453271 L35.34375,37.453271 L37.0078125,42.4415888 L22.9804688,42.4415888 Z M57.5039062,32.453271 C57.5039062,33.8434579 56.3671875,34.9649533 54.984375,34.9649533 L36.2460937,34.9649533 L23.7539062,34.9649533 L5.02734375,34.9649533 C3.6328125,34.9649533 2.5078125,33.8317757 2.5078125,32.453271 L2.5078125,31.2266355 L49.9921875,31.2266355 C50.6835937,31.2266355 51.2460937,30.6658879 51.2460937,29.9766355 C51.2460937,29.2873832 50.6835937,28.7266355 49.9921875,28.7266355 L2.49609375,28.7266355 L2.49609375,5.0817757 C2.49609375,3.70327103 3.6328125,2.57009346 5.02734375,2.57009346 L54.984375,2.57009346 C56.3671875,2.57009346 57.4921875,3.69158879 57.5039062,5.05841121 L10.21875,5.05841121 C9.52734375,5.05841121 8.96484375,5.61915888 8.96484375,6.30841121 C8.96484375,6.99766355 9.52734375,7.55841121 10.21875,7.55841121 L57.5039062,7.55841121 L57.5039062,32.453271 Z" id="Shape"></path>
                <path d="M6.38671875,5.05841121 L5.82421875,5.05841121 C5.1328125,5.05841121 4.5703125,5.61915888 4.5703125,6.30841121 C4.5703125,6.99766355 5.1328125,7.55841121 5.82421875,7.55841121 L6.38671875,7.55841121 C7.078125,7.55841121 7.640625,6.99766355 7.640625,6.30841121 C7.62890625,5.61915888 7.078125,5.05841121 6.38671875,5.05841121 Z" id="Shape"></path>
                <path d="M53.5898437,31.2266355 L54.1171875,31.2266355 C54.8085937,31.2266355 55.3710937,30.6658879 55.3710937,29.9766355 C55.3710937,29.2873832 54.8085937,28.7266355 54.1171875,28.7266355 L53.5898437,28.7266355 C52.8984375,28.7266355 52.3359375,29.2873832 52.3359375,29.9766355 C52.3476562,30.6775701 52.8984375,31.2266355 53.5898437,31.2266355 Z" id="Shape"></path>
            </g>
        </g>
    </g>
</svg>